<svg xmlns="http://www.w3.org/2000/svg" style="display: none">
    <symbol id='analytics-full' width="24" height="20" viewBox="0 0 24 20" fill="none" xmlns="http://www.w3.org/2000/svg">
        <path d="M15.8462 5H22M22 5V10.7143M22 5L13.3077 13.0714C13.1639 13.2023 12.9706 13.2756 12.7692 13.2756C12.5679 13.2756 12.3746 13.2023 12.2308 13.0714L8.69231 9.78571C8.54852 9.65484 8.35519 9.58153 8.15385 9.58153C7.9525 9.58153 7.75918 9.65484 7.61538 9.78571L2 15" stroke="#2B2D42" stroke-width="2.5" stroke-linecap="round" stroke-linejoin="round"/>
    </symbol>
    <symbol id='analytics-empty' width="22" height="20" viewBox="0 0 22 20" fill="none" xmlns="http://www.w3.org/2000/svg">
        <path d="M14.8462 5H21M21 5V10.7143M21 5L12.3077 13.0714C12.1639 13.2023 11.9706 13.2756 11.7692 13.2756C11.5679 13.2756 11.3746 13.2023 11.2308 13.0714L7.69231 9.78571C7.54852 9.65484 7.35519 9.58153 7.15385 9.58153C6.9525 9.58153 6.75918 9.65484 6.61538 9.78571L1 15" stroke="#8D99AE" stroke-width="1.5" stroke-linecap="round" stroke-linejoin="round"/>
    </symbol>

    <symbol id='courses-full' width="20" height="20" viewBox="0 0 20 20" fill="none" xmlns="http://www.w3.org/2000/svg">
        <path fill-rule="evenodd" clip-rule="evenodd" d="M9.5 19.4767C7.30423 17.2931 4.45089 15.8795 1.36927 15.4615C0.991239 15.4197 0.6421 15.2393 0.389239 14.9552C0.136378 14.6711 -0.00227895 14.3034 2.83387e-05 13.923V1.53829C1.37189e-05 1.31607 0.0481389 1.09649 0.141093 0.894644C0.234047 0.692801 0.369623 0.513491 0.538495 0.369049C0.704392 0.227233 0.898563 0.122338 1.10811 0.0613299C1.31766 0.000321604 1.5378 -0.0154034 1.75389 0.0151992C4.69124 0.502707 7.39715 1.89325 9.5 3.9844V19.4767ZM10.5 19.4771V3.9848C12.6029 1.89343 15.309 0.502738 18.2465 0.0151992C18.4626 -0.0154034 18.6827 0.000321604 18.8923 0.0613299C19.1018 0.122338 19.296 0.227233 19.4619 0.369049C19.6308 0.513491 19.7664 0.692801 19.8593 0.894644C19.9523 1.09649 20.0004 1.31607 20.0004 1.53829V13.923C20.0027 14.3034 19.864 14.6711 19.6112 14.9552C19.3583 15.2393 19.0092 15.4197 18.6311 15.4615C15.5493 15.8795 12.6958 17.2933 10.5 19.4771Z" fill="#2B2D42"/>
    </symbol>
    <symbol id='courses-empty' width="22" height="22" viewBox="0 0 22 22" fill="none" xmlns="http://www.w3.org/2000/svg">
        <path d="M11.0001 21C8.74662 18.519 5.69053 16.912 2.36927 16.4615C1.99124 16.4197 1.6421 16.2393 1.38924 15.9552C1.13638 15.6711 0.997721 15.3034 1.00003 14.923V2.53829C1.00001 2.31607 1.04814 2.09649 1.14109 1.89464C1.23405 1.6928 1.36962 1.51349 1.53849 1.36905C1.70439 1.22723 1.89856 1.12234 2.10811 1.06133C2.31766 1.00032 2.5378 0.984597 2.75389 1.0152C5.92975 1.54229 8.83505 3.12503 11.0001 5.50755V21Z" stroke="#8D99AE" stroke-width="1.5" stroke-linecap="round" stroke-linejoin="round"/>
        <path d="M11.0002 21C13.2537 18.519 16.3098 16.912 19.6311 16.4615C20.0091 16.4197 20.3583 16.2393 20.6111 15.9552C20.864 15.6711 21.0026 15.3034 21.0003 14.923V2.53829C21.0004 2.31607 20.9522 2.09649 20.8593 1.89464C20.7663 1.6928 20.6307 1.51349 20.4619 1.36905C20.296 1.22723 20.1018 1.12234 19.8923 1.06133C19.6827 1.00032 19.4626 0.984597 19.2465 1.0152C16.0706 1.54229 13.1653 3.12503 11.0002 5.50755V21Z" stroke="#8D99AE" stroke-width="1.5" stroke-linecap="round" stroke-linejoin="round"/>
    </symbol>

    <symbol id='teams-full' width="24" height="22" viewBox="0 0 24 22" fill="none" xmlns="http://www.w3.org/2000/svg">
        <path d="M8.50027 8.5C10.5713 8.5 12.2503 6.82107 12.2503 4.75C12.2503 2.67893 10.5713 1 8.50027 1C6.42921 1 4.75027 2.67893 4.75027 4.75C4.75027 6.82107 6.42921 8.5 8.50027 8.5Z" fill="#2B2D42" stroke="#2B2D42" stroke-width="1.71429" stroke-linecap="round" stroke-linejoin="round"/>
        <path d="M16 21.0002H1V19.3335C1 17.3444 1.79018 15.4367 3.1967 14.0302C4.60322 12.6237 6.51088 11.8335 8.5 11.8335C10.4891 11.8335 12.3968 12.6237 13.8033 14.0302C15.2098 15.4367 16 17.3444 16 19.3335V21.0002Z" fill="#2B2D42" stroke="#2B2D42" stroke-width="1.71429" stroke-linecap="round" stroke-linejoin="round"/>
        <path d="M15.1675 1C16.162 1 17.1159 1.39509 17.8191 2.09835C18.5224 2.80161 18.9175 3.75544 18.9175 4.75C18.9175 5.74456 18.5224 6.69839 17.8191 7.40165C17.1159 8.10491 16.162 8.5 15.1675 8.5" stroke="#2B2D42" stroke-width="1.71429" stroke-linecap="round" stroke-linejoin="round"/>
        <path d="M17.8335 12.1504C19.2532 12.6905 20.4755 13.6489 21.3386 14.8989C22.2016 16.1488 22.6648 17.6314 22.6668 19.1504V21.0004H20.1668" stroke="#2B2D42" stroke-width="1.71429" stroke-linecap="round" stroke-linejoin="round"/>
    </symbol>
    <symbol id='teams-empty' width="24" height="22" viewBox="0 0 24 22" fill="none" xmlns="http://www.w3.org/2000/svg">
        <path d="M8.50024 8.5C10.5713 8.5 12.2502 6.82107 12.2502 4.75C12.2502 2.67893 10.5713 1 8.50024 1C6.42918 1 4.75024 2.67893 4.75024 4.75C4.75024 6.82107 6.42918 8.5 8.50024 8.5Z" stroke="#8D99AE" stroke-width="1.5" stroke-linecap="round" stroke-linejoin="round"/>
        <path d="M16 21.0002H1V19.3335C1 17.3444 1.79018 15.4367 3.1967 14.0302C4.60322 12.6237 6.51088 11.8335 8.5 11.8335C10.4891 11.8335 12.3968 12.6237 13.8033 14.0302C15.2098 15.4367 16 17.3444 16 19.3335V21.0002Z" stroke="#8D99AE" stroke-width="1.5" stroke-linecap="round" stroke-linejoin="round"/>
        <path d="M15.1675 1C16.162 1 17.1159 1.39509 17.8191 2.09835C18.5224 2.80161 18.9175 3.75544 18.9175 4.75C18.9175 5.74456 18.5224 6.69839 17.8191 7.40165C17.1159 8.10491 16.162 8.5 15.1675 8.5" stroke="#8D99AE" stroke-width="1.5" stroke-linecap="round" stroke-linejoin="round"/>
        <path d="M17.8335 12.1504C19.2532 12.6905 20.4755 13.6489 21.3386 14.8989C22.2016 16.1488 22.6648 17.6314 22.6668 19.1504V21.0004H20.1668" stroke="#8D99AE" stroke-width="1.5" stroke-linecap="round" stroke-linejoin="round"/>
    </symbol>

    <symbol id='dashboard-full' width="22" height="22" viewBox="0 0 22 22" fill="none" xmlns="http://www.w3.org/2000/svg">
        <path d="M7.15385 1H2.53846C1.68879 1 1 1.68879 1 2.53846V7.15385C1 8.00352 1.68879 8.69231 2.53846 8.69231H7.15385C8.00352 8.69231 8.69231 8.00352 8.69231 7.15385V2.53846C8.69231 1.68879 8.00352 1 7.15385 1Z" fill="#2B2D42" stroke="#2B2D42" stroke-width="1.5" stroke-linecap="round" stroke-linejoin="round"/>
        <path d="M19.4617 1H14.8463C13.9967 1 13.3079 1.68879 13.3079 2.53846V7.15385C13.3079 8.00352 13.9967 8.69231 14.8463 8.69231H19.4617C20.3114 8.69231 21.0002 8.00352 21.0002 7.15385V2.53846C21.0002 1.68879 20.3114 1 19.4617 1Z" fill="#2B2D42" stroke="#2B2D42" stroke-width="1.5" stroke-linecap="round" stroke-linejoin="round"/>
        <path d="M7.15385 13.3076H2.53846C1.68879 13.3076 1 13.9964 1 14.8461V19.4615C1 20.3111 1.68879 20.9999 2.53846 20.9999H7.15385C8.00352 20.9999 8.69231 20.3111 8.69231 19.4615V14.8461C8.69231 13.9964 8.00352 13.3076 7.15385 13.3076Z" fill="#2B2D42" stroke="#2B2D42" stroke-width="1.5" stroke-linecap="round" stroke-linejoin="round"/>
        <path d="M19.4617 13.3076H14.8463C13.9967 13.3076 13.3079 13.9964 13.3079 14.8461V19.4615C13.3079 20.3111 13.9967 20.9999 14.8463 20.9999H19.4617C20.3114 20.9999 21.0002 20.3111 21.0002 19.4615V14.8461C21.0002 13.9964 20.3114 13.3076 19.4617 13.3076Z" fill="#2B2D42" stroke="#2B2D42" stroke-width="1.5" stroke-linecap="round" stroke-linejoin="round"/>
    </symbol>
    <symbol id='dashboard-empty' width="22" height="22" viewBox="0 0 22 22" fill="none" xmlns="http://www.w3.org/2000/svg">
        <path d="M7.15385 1H2.53846C1.68879 1 1 1.68879 1 2.53846V7.15385C1 8.00352 1.68879 8.69231 2.53846 8.69231H7.15385C8.00352 8.69231 8.69231 8.00352 8.69231 7.15385V2.53846C8.69231 1.68879 8.00352 1 7.15385 1Z" stroke="#8D99AE" stroke-width="1.5" stroke-linecap="round" stroke-linejoin="round"/>
        <path d="M19.4616 1H14.8462C13.9966 1 13.3078 1.68879 13.3078 2.53846V7.15385C13.3078 8.00352 13.9966 8.69231 14.8462 8.69231H19.4616C20.3113 8.69231 21.0001 8.00352 21.0001 7.15385V2.53846C21.0001 1.68879 20.3113 1 19.4616 1Z" stroke="#8D99AE" stroke-width="1.5" stroke-linecap="round" stroke-linejoin="round"/>
        <path d="M7.15385 13.3076H2.53846C1.68879 13.3076 1 13.9964 1 14.8461V19.4615C1 20.3111 1.68879 20.9999 2.53846 20.9999H7.15385C8.00352 20.9999 8.69231 20.3111 8.69231 19.4615V14.8461C8.69231 13.9964 8.00352 13.3076 7.15385 13.3076Z" stroke="#8D99AE" stroke-width="1.5" stroke-linecap="round" stroke-linejoin="round"/>
        <path d="M19.4616 13.3076H14.8462C13.9966 13.3076 13.3078 13.9964 13.3078 14.8461V19.4615C13.3078 20.3111 13.9966 20.9999 14.8462 20.9999H19.4616C20.3113 20.9999 21.0001 20.3111 21.0001 19.4615V14.8461C21.0001 13.9964 20.3113 13.3076 19.4616 13.3076Z" stroke="#8D99AE" stroke-width="1.5" stroke-linecap="round" stroke-linejoin="round"/>
    </symbol>

    <symbol id='logout-gray' width="22" height="22" viewBox="0 0 22 22" fill="none" xmlns="http://www.w3.org/2000/svg">
        <path d="M14.8462 16.3846V19.4615C14.8462 19.8696 14.6841 20.2609 14.3955 20.5494C14.107 20.8379 13.7157 21 13.3077 21H2.53846C2.13044 21 1.73912 20.8379 1.4506 20.5494C1.16209 20.2609 1 19.8696 1 19.4615V2.53846C1 2.13044 1.16209 1.73912 1.4506 1.4506C1.73912 1.16209 2.13044 1 2.53846 1H13.3077C13.7157 1 14.107 1.16209 14.3955 1.4506C14.6841 1.73912 14.8462 2.13044 14.8462 2.53846V5.61538" stroke="#8D99AE" stroke-width="1.5" stroke-linecap="round" stroke-linejoin="round"/>
        <path d="M10.2307 11H20.9999" stroke="#8D99AE" stroke-width="1.5" stroke-linecap="round" stroke-linejoin="round"/>
        <path d="M17.9229 7.92285L20.9998 10.9998L17.9229 14.0767" stroke="#8D99AE" stroke-width="1.5" stroke-linecap="round" stroke-linejoin="round"/>
    </symbol>

    <symbol id="notification-empty" width="26" height="26" viewBox="0 0 26 26" fill="none" xmlns="http://www.w3.org/2000/svg">
        <path d="M10.2308 22.8577C10.3904 23.4711 10.7488 24.0143 11.2499 24.402C11.7511 24.7897 12.3666 25 13 25C13.6334 25 14.2489 24.7897 14.7501 24.402C15.2512 24.0143 15.6096 23.4711 15.7692 22.8577M13 1C15.1005 1 17.115 1.8351 18.6003 3.32159C20.0856 4.80808 20.92 6.82419 20.92 8.92641C20.92 17.7397 24.1323 19.4765 25 19.4765H1C1.88615 19.4765 5.08 17.7212 5.08 8.92641C5.08 6.82419 5.91443 4.80808 7.39971 3.32159C8.885 1.8351 10.8995 1 13 1Z" stroke="#8D99AE" stroke-width="1.5" stroke-linecap="round" stroke-linejoin="round"/>
    </symbol>

    <symbol id="chevron-down" width="13" height="24" viewBox="0 0 13 24" fill="none" xmlns="http://www.w3.org/2000/svg">
        <path d="M1 9.5L6.20385 14.3798C6.24183 14.4177 6.28771 14.448 6.33864 14.4687C6.38958 14.4893 6.44449 14.5 6.5 14.5C6.5555 14.5 6.61042 14.4893 6.66136 14.4687C6.71229 14.448 6.75817 14.4177 6.79615 14.3798L12 9.5" stroke="#2B2D42" stroke-width="1.71" stroke-linecap="round" stroke-linejoin="round"/>
    </symbol>

    <symbol id="search" width="22" height="22" viewBox="0 0 22 22" fill="none" xmlns="http://www.w3.org/2000/svg">
        <path d="M21 21L15.2308 15.2308M17.6769 9.33846C17.6769 13.9437 13.9437 17.6769 9.33846 17.6769C4.73326 17.6769 1 13.9437 1 9.33846C1 4.73326 4.73326 1 9.33846 1C13.9437 1 17.6769 4.73326 17.6769 9.33846Z" stroke="#8D99AE" stroke-width="1.5" stroke-linecap="round" stroke-linejoin="round"/>
    </symbol>

    <symbol id="add" width="46" height="46" viewBox="0 0 46 46" fill="none" xmlns="http://www.w3.org/2000/svg">
        <path d="M23 12.8462V33.1538M12.8462 23H33.1538M11.1538 1H34.8462C40.454 1 45 5.54603 45 11.1538V34.8462C45 40.454 40.454 45 34.8462 45H11.1538C5.54603 45 1 40.454 1 34.8462V11.1538C1 5.54603 5.54603 1 11.1538 1Z" stroke="#8D99AE" stroke-width="1.5" stroke-linecap="round" stroke-linejoin="round"/>
    </symbol>

    <symbol id="add-team" width="50" height="46" viewBox="0 0 50 46" fill="none" xmlns="http://www.w3.org/2000/svg">
        <path d="M17.6672 17.5C22.2236 17.5 25.9172 13.8063 25.9172 9.25C25.9172 4.69365 22.2236 1 17.6672 1C13.1109 1 9.41724 4.69365 9.41724 9.25C9.41724 13.8063 13.1109 17.5 17.6672 17.5Z" stroke="#8D99AE" stroke-width="1.5" stroke-linecap="round" stroke-linejoin="round"/>
        <path d="M34.1667 45.0007H1.16675V41.334C1.16675 36.9579 2.90514 32.7611 5.99949 29.6667C9.09384 26.5724 13.2907 24.834 17.6667 24.834C22.0428 24.834 26.2397 26.5724 29.334 29.6667C32.4284 32.7611 34.1667 36.9579 34.1667 41.334V45.0007Z" stroke="#8D99AE" stroke-width="1.5" stroke-linecap="round" stroke-linejoin="round"/>
        <path d="M32.3352 1C34.5232 1 36.6217 1.86919 38.1688 3.41637C39.716 4.96354 40.5852 7.06196 40.5852 9.25C40.5852 11.438 39.716 13.5365 38.1688 15.0836C36.6217 16.6308 34.5232 17.5 32.3352 17.5" stroke="#8D99AE" stroke-width="1.5" stroke-linecap="round" stroke-linejoin="round"/>
        <path d="M38.2004 25.5303C41.3238 26.7185 44.0128 28.827 45.9116 31.5769C47.8103 34.3269 48.8294 37.5885 48.8338 40.9303V45.0003H43.3338" stroke="#8D99AE" stroke-width="1.5" stroke-linecap="round" stroke-linejoin="round"/>
    </symbol>

    <symbol id="dropdown-down" width="35" height="18" viewBox="0 0 35 18" fill="none" xmlns="http://www.w3.org/2000/svg">
        <path d="M32 2.5L18.2808 15.1874C18.1806 15.2861 18.0597 15.3647 17.9254 15.4185C17.7911 15.4723 17.6463 15.5 17.5 15.5C17.3537 15.5 17.2089 15.4723 17.0746 15.4185C16.9403 15.3647 16.8194 15.2861 16.7192 15.1874L3 2.5" stroke="white" stroke-width="4.5" stroke-linecap="round" stroke-linejoin="round"/>
    </symbol>

    <symbol id="dropdown-up" width="35" height="18" viewBox="0 0 35 18" fill="none" xmlns="http://www.w3.org/2000/svg">
        <path d="M3 15.5L16.7192 2.81258C16.8194 2.71391 16.9403 2.63526 17.0746 2.5815C17.2089 2.52774 17.3537 2.5 17.5 2.5C17.6463 2.5 17.7911 2.52774 17.9254 2.5815C18.0597 2.63526 18.1806 2.71391 18.2808 2.81258L32 15.5" stroke="white" stroke-width="4.5" stroke-linecap="round" stroke-linejoin="round"/>
    </symbol>
</svg>